<?xml version="1.0" encoding="iso-8859-1"?>
<!-- Generator: Adobe Illustrator 16.0.4, SVG Export Plug-In . SVG Version: 6.00 Build 0)  -->
<!DOCTYPE svg PUBLIC "-//W3C//DTD SVG 1.1//EN" "http://www.w3.org/Graphics/SVG/1.1/DTD/svg11.dtd">
<svg version="1.1" xmlns="http://www.w3.org/2000/svg" xmlns:xlink="http://www.w3.org/1999/xlink" x="0px" y="0px" width="400px"
	 height="164.777px" viewBox="0 0 400 164.777" style="enable-background:new 0 0 400 164.777;" xml:space="preserve">
<g id="Layer_16" style="display:none;">
	<rect x="-3.5" y="-8.361" style="display:inline;" width="407" height="181.5"/>
</g>
<g id="Layer_6">
	<g id="letters">
		<g>
			<path style="fill:#FFFFFF;" d="M55.235,114.894c-9.703,0-17.069-2.067-23.358-8.447l8.085-8.085
				c4.043,4.043,9.523,5.391,15.453,5.391c7.367,0,11.32-2.783,11.32-7.906c0-2.246-0.628-4.131-1.977-5.391
				c-1.257-1.168-2.695-1.796-5.66-2.245l-7.726-1.077c-5.48-0.808-9.523-2.517-12.398-5.303c-3.055-3.053-4.582-7.187-4.582-12.577
				c0-11.408,8.445-19.405,22.281-19.405c8.804,0,15.183,2.158,20.663,7.457l-7.905,7.818c-4.043-3.863-8.895-4.404-13.117-4.404
				c-6.648,0-9.882,3.685-9.882,8.085c0,1.618,0.539,3.327,1.886,4.583c1.258,1.169,3.324,2.155,5.93,2.517l7.546,1.077
				c5.839,0.807,9.523,2.425,12.218,4.94c3.415,3.235,4.942,7.906,4.942,13.566C78.953,107.886,68.621,114.894,55.235,114.894z"/>
			<path style="fill:#FFFFFF;" d="M115.153,61.529v52.823h-12.487V61.529h-16.71V50.388h45.908v11.142H115.153z"/>
			<path style="fill:#FFFFFF;" d="M175.972,114.353l-12.488-25.515H154.5v25.515h-12.487V50.388h25.065
				c13.027,0,20.752,8.893,20.752,19.585c0,8.983-5.479,14.556-11.679,16.802l14.283,27.578H175.972z M166.269,61.529H154.5v16.89
				h11.769c5.48,0,9.074-3.506,9.074-8.446S171.749,61.529,166.269,61.529z"/>
			<path style="fill:#FFFFFF;" d="M293.652,114.353h-26.771V50.388h25.693c12.486,0,19.764,7.008,19.764,17.967
				c0,7.1-4.67,11.679-7.906,13.209c3.864,1.797,8.805,5.839,8.805,14.373C313.236,107.886,305.061,114.353,293.652,114.353z
				 M291.585,61.529h-12.219v14.731h12.219c5.303,0,8.265-2.965,8.265-7.365C299.85,64.491,296.888,61.529,291.585,61.529z
				 M292.396,87.49h-13.029v15.725h13.029c5.657,0,8.352-3.594,8.352-7.906S298.053,87.49,292.396,87.49z"/>
			<path style="fill:#FFFFFF;" d="M325.988,114.353V50.388h42.135v11.142h-29.646v15.002h25.245v11.142h-25.245v15.542h29.646
				v11.138H325.988z"/>
		</g>
	</g>
	<g id="scanner">
		<g>
			<g>
				<path style="fill:#FFFFFF;" d="M227.106,69.157v3.735l0,0c3.927,0,7.456,2.336,8.991,5.952c1.021,2.401,1.045,5.056,0.068,7.474
					c-0.976,2.417-2.836,4.31-5.237,5.329c-1.219,0.517-2.5,0.778-3.809,0.778c-3.929,0-7.46-2.335-8.995-5.947
					c-2.102-4.955,0.219-10.7,5.173-12.806c1.218-0.518,2.499-0.78,3.808-0.78L227.106,69.157 M227.105,69.157
					c-1.759,0-3.548,0.346-5.269,1.077c-6.861,2.916-10.062,10.841-7.151,17.703c2.185,5.139,7.18,8.225,12.435,8.225
					c1.759,0,3.547-0.346,5.268-1.076c6.865-2.914,10.065-10.836,7.148-17.702C237.354,72.244,232.359,69.156,227.105,69.157
					L227.105,69.157z"/>
			</g>
			<g>
				<path style="fill:#39FF97;" d="M227.104,65.839L227.104,65.839c6.764,0,12.844,4.021,15.489,10.246
					c1.756,4.136,1.796,8.707,0.114,12.873c-1.683,4.165-4.888,7.427-9.024,9.183c-2.097,0.89-4.304,1.342-6.562,1.342
					c-6.763,0-12.843-4.023-15.489-10.247c-3.621-8.535,0.375-18.429,8.908-22.055C222.637,66.29,224.845,65.839,227.104,65.839
					 M227.103,64.79c-2.328,0-4.694,0.458-6.973,1.425c-9.081,3.859-13.316,14.349-9.464,23.43
					c2.893,6.802,9.503,10.887,16.455,10.887c2.328,0,4.694-0.459,6.972-1.426c9.087-3.856,13.321-14.347,9.466-23.431
					C240.668,68.875,234.057,64.79,227.103,64.79L227.103,64.79z"/>
			</g>
			<g>
				<path style="fill:#39FF97;" d="M227.096,50.358v1.049l0,0c12.566,0,23.862,7.473,28.778,19.036
					c6.729,15.861-0.697,34.245-16.554,40.98c-3.893,1.652-7.993,2.49-12.187,2.49c-12.569,0-23.868-7.474-28.785-19.039
					c-6.729-15.861,0.697-34.243,16.554-40.976c3.894-1.653,7.995-2.492,12.19-2.492L227.096,50.358 M227.094,50.358
					c-4.207,0.001-8.484,0.828-12.601,2.575c-16.419,6.972-24.075,25.933-17.109,42.351c5.227,12.295,17.179,19.679,29.75,19.679
					c4.205,0,8.482-0.827,12.597-2.573c16.423-6.977,24.076-25.933,17.109-42.355C251.614,57.742,239.664,50.357,227.094,50.358
					L227.094,50.358z"/>
			</g>
			<g>
				<path style="fill:#39FF97;" d="M227.102,59.032L227.102,59.032c9.503,0,18.041,5.649,21.752,14.393
					c2.468,5.811,2.525,12.233,0.163,18.084c-2.362,5.852-6.863,10.432-12.674,12.898c-2.944,1.25-6.045,1.884-9.216,1.884
					c-9.503,0-18.045-5.65-21.761-14.394c-5.088-11.994,0.524-25.892,12.513-30.979C220.825,59.667,223.929,59.032,227.102,59.032
					 M227.102,57.983c-3.216,0-6.486,0.633-9.633,1.969c-12.542,5.323-18.39,19.81-13.068,32.354
					c3.991,9.392,13.122,15.033,22.727,15.033c3.214,0,6.481-0.632,9.626-1.967c12.547-5.327,18.395-19.811,13.066-32.358
					C245.833,63.623,236.705,57.983,227.102,57.983L227.102,57.983z"/>
			</g>
		</g>
	</g>
	<g id="table">
		<g>
			<path style="fill:#FFFFFF;" d="M227.101,63.074v5.419l0,0c5.698,0,10.819,3.389,13.046,8.632
				c3.053,7.189-0.312,15.521-7.497,18.572c-1.769,0.75-3.627,1.13-5.524,1.13c-5.7,0-10.823-3.388-13.051-8.626
				c-3.048-7.192,0.318-15.526,7.502-18.578c1.767-0.749,3.625-1.129,5.523-1.13L227.101,63.074 M227.099,63.074
				c-2.55,0.001-5.144,0.502-7.639,1.561c-9.955,4.229-14.595,15.725-10.375,25.681c3.17,7.455,10.417,11.931,18.04,11.931
				c2.551,0,5.144-0.501,7.64-1.56c9.958-4.229,14.597-15.725,10.37-25.68C241.968,67.551,234.722,63.074,227.099,63.074
				L227.099,63.074z"/>
		</g>
		<g>
			<path style="fill:none;stroke:#39FF96;stroke-width:0.9993;stroke-miterlimit:10;" d="M235.308,55.68
				c0,1.323-1.074,2.396-2.397,2.396h-11.594c-1.323,0-2.396-1.073-2.396-2.396v-1.998c0-1.325,1.073-2.398,2.396-2.398h11.594
				c1.323,0,2.397,1.073,2.397,2.398V55.68z"/>
			<path style="fill:none;stroke:#39FF96;stroke-width:0.9993;stroke-miterlimit:10;" d="M235.308,111.639
				c0,1.326-1.074,2.4-2.397,2.4h-11.594c-1.323,0-2.396-1.074-2.396-2.4v-1.997c0-1.324,1.073-2.396,2.396-2.396h11.594
				c1.323,0,2.397,1.072,2.397,2.396V111.639z"/>
			<g>
				<path style="fill:none;stroke:#39FF96;stroke-width:0.9993;stroke-miterlimit:10;" d="M213.199,58.137
					c0.958,0.912,0.997,2.43,0.085,3.39l-7.983,8.402c-0.912,0.96-2.431,1.002-3.389,0.09l-1.452-1.379
					c-0.959-0.913-0.998-2.429-0.087-3.392l7.985-8.403c0.913-0.96,2.431-0.998,3.391-0.086L213.199,58.137z"/>
				<path style="fill:none;stroke:#39FF96;stroke-width:0.9993;stroke-miterlimit:10;" d="M253.767,96.681
					c0.958,0.912,0.999,2.43,0.087,3.392l-7.985,8.402c-0.912,0.96-2.431,1-3.392,0.088l-1.449-1.377
					c-0.958-0.912-1-2.432-0.086-3.39l7.984-8.404c0.913-0.96,2.431-1.001,3.392-0.088L253.767,96.681z"/>
			</g>
			<g>
				<path style="fill:none;stroke:#39FF96;stroke-width:0.9993;stroke-miterlimit:10;" d="M199.932,75.159
					c1.325-0.035,2.425,1.011,2.458,2.335l0.299,11.589c0.031,1.323-1.013,2.425-2.338,2.459l-1.998,0.049
					c-1.325,0.035-2.425-1.009-2.459-2.334l-0.297-11.591c-0.033-1.322,1.014-2.423,2.336-2.458L199.932,75.159z"/>
				<path style="fill:none;stroke:#39FF96;stroke-width:0.9993;stroke-miterlimit:10;" d="M255.873,73.729
					c1.324-0.033,2.428,1.011,2.459,2.335l0.295,11.589c0.037,1.323-1.012,2.425-2.333,2.458l-1.999,0.051
					c-1.324,0.034-2.423-1.012-2.46-2.335l-0.298-11.587c-0.031-1.327,1.014-2.427,2.337-2.46L255.873,73.729z"/>
			</g>
			<g>
				<path style="fill:none;stroke:#39FF96;stroke-width:0.9993;stroke-miterlimit:10;" d="M202.588,96.575
					c0.912-0.96,2.431-0.998,3.388-0.086l8.406,7.985c0.96,0.912,1.001,2.429,0.086,3.39l-1.375,1.449
					c-0.912,0.958-2.431,1-3.394,0.088l-8.4-7.985c-0.961-0.914-1-2.432-0.088-3.393L202.588,96.575z"/>
				<path style="fill:none;stroke:#39FF96;stroke-width:0.9993;stroke-miterlimit:10;" d="M241.134,56.008
					c0.913-0.96,2.431-1,3.391-0.088l8.404,7.985c0.959,0.912,0.998,2.43,0.084,3.392l-1.374,1.449
					c-0.912,0.958-2.432,0.998-3.39,0.086l-8.404-7.985c-0.96-0.912-1-2.43-0.088-3.39L241.134,56.008z"/>
			</g>
		</g>
	</g>
	<g id="main">
		<g>
			<g>
				<path style="fill:#FFFFFF;" d="M227.096,59.288c9.399,0,17.849,5.59,21.524,14.237c5.035,11.863-0.518,25.61-12.378,30.645
					c-2.915,1.237-5.981,1.865-9.112,1.865c-9.402,0-17.854-5.59-21.528-14.235c-5.032-11.862,0.521-25.61,12.38-30.646
					c2.915-1.237,5.98-1.865,9.112-1.865H227.096 M227.093,50.348c-4.208,0-8.487,0.828-12.605,2.576
					c-16.425,6.976-24.084,25.942-17.117,42.367c5.228,12.3,17.184,19.685,29.759,19.685c4.208,0,8.488-0.828,12.605-2.575
					c16.431-6.975,24.087-25.94,17.114-42.368C251.623,57.735,239.669,50.347,227.093,50.348L227.093,50.348z"/>
			</g>
			<path style="fill:none;stroke:#39FF97;stroke-width:1.7881;stroke-miterlimit:10;" d="M207.736,90.887
				c-1.134-2.672-1.674-5.449-1.676-8.188c-0.006-2.733,0.529-5.423,1.535-7.922c1.009-2.496,2.493-4.795,4.394-6.76
				c1.903-1.967,4.225-3.594,6.898-4.726c2.673-1.141,5.455-1.676,8.186-1.681c2.737-0.007,5.429,0.53,7.92,1.537
				c2.5,1.009,4.808,2.493,6.766,4.396c1.969,1.902,3.592,4.219,4.727,6.896c1.138,2.673,1.678,5.453,1.68,8.184
				c0.001,2.735-0.521,5.427-1.537,7.92c-1.004,2.501-2.495,4.805-4.396,6.768c-1.901,1.964-4.224,3.59-6.897,4.724"/>
		</g>
	</g>
	<g>
	</g>
	<g>
	</g>
	<g>
	</g>
	<g>
	</g>
	<g>
	</g>
	<g>
	</g>
</g>
</svg>
