<?xml version="1.0" encoding="utf-8"?>
<!-- Generator: Adobe Illustrator 18.1.0, SVG Export Plug-In . SVG Version: 6.00 Build 0)  -->
<!DOCTYPE svg PUBLIC "-//W3C//DTD SVG 1.1//EN" "http://www.w3.org/Graphics/SVG/1.1/DTD/svg11.dtd">
<svg version="1.1" id="Layer_1" xmlns="http://www.w3.org/2000/svg" xmlns:xlink="http://www.w3.org/1999/xlink" x="0px" y="0px"
	 viewBox="0 0 367.1 220.1" enable-background="new 0 0 367.1 220.1" xml:space="preserve">
<g>
	<g>
		<path fill="#1b2024" d="M56.1,120.3c4.7,4,10.4,6.1,16.9,6.1c7.7-0.1,11.6-3,11.8-8.6c0.1-4.6-2.5-7.3-7.8-8.3
			c-2.4-0.3-5-0.7-7.9-1.1c-5.1-0.9-9-2.8-11.7-5.9c-2.7-3.1-4.1-6.9-4.1-11.4c0-5.4,1.7-9.7,5.2-13c3.3-3.3,8.1-4.9,14.2-5
			c7.4,0.2,13.8,2.3,19.3,6.3l-5,7.6c-4.5-3-9.4-4.6-14.7-4.7c-2.8,0-5.1,0.7-6.9,2.2c-1.9,1.5-2.9,3.7-3,6.7c0,1.8,0.7,3.4,2,4.8
			c1.3,1.5,3.5,2.5,6.4,3c1.6,0.3,3.9,0.6,6.7,1c5.6,0.8,9.7,2.9,12.4,6.2c2.6,3.3,4,7.1,4,11.5c-0.3,11.7-7.3,17.7-20.9,17.9
			c-8.8,0-16.4-2.8-22.7-8.4L56.1,120.3z"/>
		<path fill="#1b2024" d="M145.7,118c-1.3,5.7-3.8,10.1-7.5,13.1c-3.8,3-8.3,4.5-13.4,4.5c-4.7-0.1-8.6-1.3-11.7-3.5
			c-3.2-2.2-5.5-4.7-6.9-7.5c-0.4-0.9-0.8-1.8-1.2-2.7c-0.3-0.9-0.6-2-0.8-3.3c-0.4-2.5-0.6-7.2-0.6-14.2c0-7.1,0.2-11.9,0.6-14.3
			c0.4-2.4,1.1-4.4,2-5.9c1.4-2.8,3.8-5.4,6.9-7.6c3.1-2.2,7-3.4,11.7-3.5c5.7,0.1,10.4,1.8,14,5.3c3.6,3.5,5.9,7.8,6.9,12.9h-9.6
			c-0.7-2.5-2.1-4.6-4-6.3c-2-1.7-4.5-2.5-7.4-2.6c-2.1,0.1-3.9,0.5-5.5,1.3c-1.6,0.8-2.8,1.9-3.8,3.2c-1.2,1.3-1.9,3-2.3,5.1
			c-0.4,2.2-0.7,6.3-0.7,12.4c0,6.1,0.2,10.1,0.7,12.3c0.4,2.1,1.2,3.9,2.3,5.2c1,1.3,2.2,2.3,3.8,3.1c1.5,0.9,3.4,1.4,5.5,1.4
			c5.1,0,8.9-2.8,11.4-8.4H145.7z"/>
		<path fill="#1b2024" d="M184.7,121.4h-22.6l-4.6,13.7H148l21.6-61.4h7.5l21.6,61.4h-9.5L184.7,121.4z M182.1,113.2l-8.6-26.9h-0.2
			l-8.6,26.9H182.1z"/>
		<path fill="#1b2024" d="M207.5,73.7h9v52.6h29v8.8h-38V73.7z"/>
		<path fill="#1b2024" d="M256.2,73.7h38v8.8h-29v17.6h24.7v8.2h-24.7v18.1h29v8.8h-38V73.7z"/>
	</g>
	<g>
		<path fill="#1b2024" d="M49.1,146.1H53l5.5,19.1h0.1l5.5-19.1H68l-8,25h-2.9L49.1,146.1z"/>
		<path fill="#1b2024" d="M71.6,163.5c0,1.4,0.4,2.5,1.2,3.3c0.7,0.8,1.7,1.1,2.9,1.1c1.4,0,2.7-0.6,3.8-1.7l2.5,2.2
			c-1.8,1.9-3.8,2.9-6.2,2.9c-0.9,0-1.8-0.1-2.7-0.4c-0.4-0.1-0.9-0.3-1.3-0.6c-0.4-0.2-0.8-0.5-1.2-0.8c-0.7-0.7-1.3-1.6-1.8-2.8
			c-0.5-1.1-0.7-2.6-0.7-4.5c0-1.8,0.2-3.2,0.6-4.4c0.4-1.2,1-2.1,1.7-2.8c0.7-0.7,1.5-1.2,2.3-1.5c0.8-0.3,1.7-0.5,2.5-0.5
			c2,0,3.6,0.7,5,2c1.4,1.3,2.1,3.2,2.1,5.5v2.9H71.6z M78.9,160.6c0-1.4-0.4-2.4-1.1-3.2c-0.7-0.7-1.5-1-2.6-1c-1,0-1.9,0.3-2.6,1
			c-0.7,0.7-1,1.8-1.1,3.2H78.9z"/>
		<path fill="#1b2024" d="M86.6,153.3h3.5v1.9h0.1c1.1-1.4,2.6-2.1,4.5-2.1c1.4,0,2.7,0.5,3.9,1.6c1.2,1.1,1.8,2.6,1.8,4.6v11.9
			h-3.5v-10.6c0-1.3-0.3-2.2-1-2.9c-0.6-0.7-1.4-1-2.4-1s-1.8,0.3-2.5,1c-0.7,0.7-1,1.6-1,2.9v10.6h-3.5V153.3z"/>
		<path fill="#1b2024" d="M105.8,147.8h3.5v5.4h2.5v2.7h-2.5v10.4c0,0.9,0.4,1.3,1.2,1.3h1.3v3.4h-1.8c-1.2,0-2.2-0.4-3-1.2
			c-0.8-0.7-1.2-1.8-1.2-3.2V156H104v-2.7h1.7V147.8z"/>
		<path fill="#1b2024" d="M115.4,153.3h3.5v10.6c0,1.2,0.3,2.1,1,2.8c0.6,0.7,1.5,1,2.5,1s1.8-0.3,2.4-1c0.6-0.7,1-1.6,1-2.8v-10.6
			h3.5v17.8h-3.5v-1.9h-0.1c-1.1,1.4-2.6,2.1-4.5,2.1c-1.4,0-2.7-0.6-3.9-1.6c-1.3-1-1.9-2.5-1.9-4.6V153.3z"/>
		<path fill="#1b2024" d="M134.3,153.3h3.5v1.9h0.1c1.1-1.4,2.6-2.1,4.5-2.1c1.4,0,2.6,0.5,3.6,1.4l-2.5,3.1
			c-0.7-0.6-1.5-0.9-2.3-0.9c-0.9,0-1.6,0.3-2.3,0.9c-0.7,0.6-1.1,1.5-1.1,2.8v10.8h-3.5V153.3z"/>
		<path fill="#1b2024" d="M150,163.5c0,1.4,0.4,2.5,1.2,3.3c0.7,0.8,1.7,1.1,2.9,1.1c1.4,0,2.7-0.6,3.8-1.7l2.5,2.2
			c-1.8,1.9-3.8,2.9-6.2,2.9c-0.9,0-1.8-0.1-2.7-0.4c-0.4-0.1-0.9-0.3-1.3-0.6c-0.4-0.2-0.8-0.5-1.2-0.8c-0.7-0.7-1.3-1.6-1.8-2.8
			c-0.5-1.1-0.7-2.6-0.7-4.5c0-1.8,0.2-3.2,0.6-4.4c0.4-1.2,1-2.1,1.7-2.8c0.7-0.7,1.5-1.2,2.3-1.5c0.8-0.3,1.7-0.5,2.5-0.5
			c2,0,3.6,0.7,5,2c1.4,1.3,2.1,3.2,2.1,5.5v2.9H150z M157.3,160.6c0-1.4-0.4-2.4-1.1-3.2c-0.7-0.7-1.5-1-2.6-1c-1,0-1.9,0.3-2.6,1
			c-0.7,0.7-1,1.8-1.1,3.2H157.3z"/>
		<path fill="#1b2024" d="M173.8,146.1h8.8c1,0,1.9,0.1,2.8,0.3c0.9,0.2,1.8,0.7,2.7,1.5c0.8,0.6,1.4,1.4,1.9,2.4
			c0.5,1,0.7,2.2,0.7,3.6c0,1.9-0.6,3.5-1.9,5.1c-1.3,1.6-3.2,2.4-5.7,2.5h-5.6v9.8h-3.7V146.1z M177.5,157.8h5.5
			c1.4,0,2.4-0.5,3.1-1.3c0.7-0.8,1-1.7,1-2.8c0-0.8-0.1-1.5-0.4-2.1c-0.3-0.5-0.7-0.9-1.2-1.2c-0.8-0.5-1.6-0.7-2.6-0.7h-5.3V157.8
			z"/>
		<path fill="#1b2024" d="M202.6,169.5L202.6,169.5c-0.4,0.6-0.9,1.1-1.6,1.3c-0.7,0.3-1.6,0.4-2.8,0.4c-1.9,0-3.4-0.5-4.5-1.6
			c-1.1-1-1.6-2.3-1.6-3.9c0-1.5,0.5-2.7,1.4-3.7c1-1,2.3-1.5,4.2-1.5h4.8v-1.9c0-1.6-1.2-2.3-3.5-2.3c-0.9,0-1.5,0.1-2,0.3
			c-0.5,0.2-0.9,0.6-1.2,1.1l-2.7-2.2c1.3-1.8,3.3-2.6,5.8-2.6c2.2,0,3.9,0.4,5.2,1.3c1.3,0.9,2,2.4,2,4.6v12.2h-3.5V169.5z
			 M202.6,163.5h-4.2c-2,0-3,0.8-3,2.2c0,0.6,0.3,1.1,0.8,1.5c0.5,0.5,1.3,0.7,2.5,0.7c1.5,0,2.5-0.2,3.1-0.5
			c0.5-0.4,0.8-1.2,0.8-2.6V163.5z"/>
		<path fill="#1b2024" d="M211.1,153.3h3.5v1.9h0.1c1.1-1.4,2.6-2.1,4.5-2.1c1.4,0,2.6,0.5,3.6,1.4l-2.5,3.1
			c-0.7-0.6-1.5-0.9-2.3-0.9c-0.9,0-1.6,0.3-2.3,0.9c-0.7,0.6-1.1,1.5-1.1,2.8v10.8h-3.5V153.3z"/>
		<path fill="#1b2024" d="M225.5,147.8h3.5v5.4h2.5v2.7H229v10.4c0,0.9,0.4,1.3,1.2,1.3h1.3v3.4h-1.8c-1.2,0-2.2-0.4-3-1.2
			c-0.8-0.7-1.2-1.8-1.2-3.2V156h-1.7v-2.7h1.7V147.8z"/>
		<path fill="#1b2024" d="M235.1,153.3h3.5v1.9h0.1c1.1-1.4,2.6-2.1,4.5-2.1c1.4,0,2.7,0.5,3.9,1.6c1.2,1.1,1.8,2.6,1.8,4.6v11.9
			h-3.5v-10.6c0-1.3-0.3-2.2-1-2.9c-0.6-0.7-1.4-1-2.4-1s-1.8,0.3-2.5,1c-0.7,0.7-1,1.6-1,2.9v10.6h-3.5V153.3z"/>
		<path fill="#1b2024" d="M256.6,163.5c0,1.4,0.4,2.5,1.2,3.3c0.7,0.8,1.7,1.1,2.9,1.1c1.4,0,2.7-0.6,3.8-1.7l2.5,2.2
			c-1.8,1.9-3.8,2.9-6.2,2.9c-0.9,0-1.8-0.1-2.7-0.4c-0.4-0.1-0.9-0.3-1.3-0.6c-0.4-0.2-0.8-0.5-1.2-0.8c-0.7-0.7-1.3-1.6-1.8-2.8
			c-0.5-1.1-0.7-2.6-0.7-4.5c0-1.8,0.2-3.2,0.6-4.4c0.4-1.2,1-2.1,1.7-2.8c0.7-0.7,1.5-1.2,2.3-1.5c0.8-0.3,1.7-0.5,2.5-0.5
			c2,0,3.6,0.7,5,2c1.4,1.3,2.1,3.2,2.1,5.5v2.9H256.6z M263.9,160.6c0-1.4-0.4-2.4-1.1-3.2c-0.7-0.7-1.5-1-2.6-1
			c-1,0-1.9,0.3-2.6,1c-0.7,0.7-1,1.8-1.1,3.2H263.9z"/>
		<path fill="#1b2024" d="M271.7,153.3h3.5v1.9h0.1c1.1-1.4,2.6-2.1,4.5-2.1c1.4,0,2.6,0.5,3.6,1.4l-2.5,3.1
			c-0.7-0.6-1.5-0.9-2.3-0.9c-0.9,0-1.6,0.3-2.3,0.9c-0.7,0.6-1.1,1.5-1.1,2.8v10.8h-3.5V153.3z"/>
		<path fill="#1b2024" d="M285.9,165.6c1.4,1.5,3.2,2.3,5.5,2.3c1,0,1.8-0.2,2.5-0.6c0.6-0.4,1-1,1-1.7c0-0.6-0.2-1.1-0.6-1.3
			c-0.4-0.3-0.9-0.4-1.6-0.4l-3.1-0.3c-1.5-0.1-2.6-0.6-3.5-1.5c-0.9-0.8-1.4-2-1.4-3.6c0-1.8,0.7-3.2,1.9-4.1
			c1.2-0.9,2.7-1.4,4.6-1.4c0.8,0,1.5,0.1,2.1,0.2c0.6,0.1,1.2,0.3,1.8,0.5c1.1,0.4,2,1,2.9,1.8l-2.2,2.6c-0.7-0.5-1.4-0.9-2.1-1.2
			c-0.7-0.3-1.6-0.4-2.5-0.4c-1.1,0-1.9,0.2-2.3,0.6c-0.5,0.4-0.7,0.9-0.7,1.5c0,0.4,0.1,0.8,0.5,1.1c0.3,0.3,0.9,0.5,1.8,0.6
			l2.9,0.2c1.8,0.1,3.1,0.7,3.9,1.7c0.7,1,1.1,2.2,1.1,3.7c0,1.7-0.7,3.1-2,4c-1.3,1-3,1.5-5.1,1.5c-2.8,0-5.4-1.1-7.6-3.2
			L285.9,165.6z"/>
	</g>
	<g>
		<polygon fill="#51B848" points="358.7,120.4 330.5,120.4 330.5,37.1 262.1,37.1 262.1,9 358.7,9 		"/>
	</g>
	<g>
		<polygon fill="#51B848" points="49.6,208 10,208 10,162.3 19.4,162.3 19.4,198.6 49.6,198.6 		"/>
	</g>
</g>
</svg>
